<?xml version="1.0" standalone="no"?>
<!DOCTYPE svg PUBLIC "-//W3C//DTD SVG 20010904//EN"
 "http://www.w3.org/TR/2001/REC-SVG-20010904/DTD/svg10.dtd">
<svg version="1.0" xmlns="http://www.w3.org/2000/svg"
 width="512.000000pt" height="512.000000pt" viewBox="0 0 512.000000 512.000000"
 preserveAspectRatio="xMidYMid meet">

<g transform="translate(0.000000,512.000000) scale(0.100000,-0.100000)"
fill="#000000" stroke="none">
<path d="M3430 5078 c-175 -16 -321 -87 -455 -222 -77 -77 -98 -106 -137 -186
-61 -125 -80 -208 -79 -340 1 -128 26 -236 77 -334 l35 -70 -834 -834 -834
-834 -84 45 c-430 232 -945 20 -1089 -448 -90 -294 30 -638 285 -820 134 -96
266 -138 431 -139 l112 -1 5 -130 c4 -96 10 -147 27 -195 110 -330 385 -531
723 -531 127 0 231 25 347 83 69 34 103 60 181 138 81 81 102 109 142 190 60
122 79 206 79 342 -1 148 -38 278 -116 404 l-25 40 829 829 829 829 43 -31
c210 -150 498 -184 731 -86 265 112 446 367 464 653 22 358 -213 679 -568 776
-42 12 -102 18 -175 18 l-112 1 -5 130 c-4 105 -10 145 -31 209 -115 341 -434
547 -796 514z m272 -228 c170 -64 307 -220 348 -399 17 -71 7 -228 -18 -306
-24 -73 -19 -107 20 -140 36 -30 67 -31 143 -5 248 85 534 -31 658 -267 188
-358 -51 -784 -453 -810 -154 -10 -297 41 -414 147 -61 56 -90 70 -132 63 -39
-7 -1861 -1825 -1866 -1863 -6 -37 9 -80 36 -109 40 -43 95 -142 117 -211 24
-80 26 -220 4 -304 -48 -181 -192 -330 -375 -387 -82 -25 -230 -27 -310 -3
-178 52 -315 186 -376 369 -24 73 -26 90 -21 185 3 66 13 128 26 168 24 74 20
103 -21 137 -36 30 -66 31 -140 5 -246 -86 -537 32 -661 267 -67 128 -82 260
-47 397 45 178 172 317 350 385 56 21 81 25 185 25 164 0 209 -17 394 -150 45
-32 79 -30 127 5 21 16 441 431 932 923 l892 893 0 42 c0 31 -9 54 -37 94
-109 158 -136 354 -72 523 71 192 252 335 449 355 89 8 193 -3 262 -29z"/>
<path d="M2284 2831 c-89 -54 -49 -181 57 -181 45 0 89 48 89 95 0 47 -13 71
-50 90 -38 20 -58 19 -96 -4z"/>
<path d="M2085 2625 c-16 -7 -141 -125 -277 -262 -235 -236 -248 -251 -248
-286 0 -49 23 -83 66 -97 27 -9 42 -9 63 0 16 6 141 125 280 264 236 238 251
255 251 289 0 26 -8 45 -27 66 -34 36 -68 44 -108 26z"/>
</g>
</svg>
