<?xml version="1.0" standalone="no"?>
<!DOCTYPE svg PUBLIC "-//W3C//DTD SVG 20010904//EN"
 "http://www.w3.org/TR/2001/REC-SVG-20010904/DTD/svg10.dtd">
<svg version="1.0" xmlns="http://www.w3.org/2000/svg"
 width="512.000000pt" height="512.000000pt" viewBox="0 0 512.000000 512.000000"
 preserveAspectRatio="xMidYMid meet">

<g transform="translate(0.000000,512.000000) scale(0.100000,-0.100000)"
fill="#000000" stroke="none">
<path d="M3460 4945 c-135 -30 -283 -125 -365 -233 -42 -54 -45 -93 -10 -127
44 -45 77 -35 156 49 76 80 150 126 244 151 163 42 340 -10 460 -136 88 -92
118 -170 140 -360 12 -97 107 -192 204 -204 197 -23 282 -58 374 -154 104
-109 151 -251 130 -395 -36 -253 -262 -433 -514 -413 -37 3 -136 22 -220 42
-123 30 -167 36 -220 32 -116 -8 -136 -23 -441 -326 l-278 -275 0 77 c0 69 -3
81 -25 102 -23 24 -29 25 -160 25 l-135 0 0 135 c0 131 -1 137 -25 160 -21 22
-33 25 -102 25 l-77 0 275 278 c323 325 324 327 323 472 0 73 -8 124 -33 220
-18 69 -35 156 -38 195 -5 54 -11 74 -29 92 -32 31 -78 30 -111 -3 -25 -25
-26 -28 -19 -116 4 -50 22 -151 41 -224 39 -149 42 -190 19 -237 -9 -18 -171
-187 -360 -377 -311 -313 -344 -349 -344 -378 0 -22 9 -41 25 -57 23 -24 29
-25 160 -25 l135 0 0 -135 c0 -131 1 -137 25 -160 23 -24 29 -25 160 -25 l135
0 0 -135 c0 -131 1 -137 25 -160 16 -16 35 -25 57 -25 29 0 65 33 378 344 190
189 359 351 377 360 47 23 86 20 245 -20 127 -33 158 -37 273 -38 117 0 137 2
203 26 104 38 176 83 252 158 75 76 121 148 158 252 22 63 26 89 27 193 0 97
-4 133 -22 190 -52 162 -175 308 -324 383 -86 44 -190 72 -267 72 -34 0 -50 6
-71 28 -24 23 -29 38 -34 103 -27 323 -289 573 -612 585 -64 2 -123 -1 -165
-11z"/>
<path d="M2185 4215 l-25 -24 0 -311 0 -311 25 -24 c15 -16 36 -25 55 -25 19
0 40 9 55 25 l25 24 0 311 0 311 -25 24 c-15 16 -36 25 -55 25 -19 0 -40 -9
-55 -25z"/>
<path d="M1305 3815 c-17 -16 -25 -35 -25 -57 0 -29 23 -56 223 -255 206 -207
225 -223 258 -223 46 0 79 33 79 80 0 32 -19 54 -223 257 -199 200 -226 223
-255 223 -22 0 -41 -8 -57 -25z"/>
<path d="M905 2935 c-16 -15 -25 -36 -25 -55 0 -19 9 -40 25 -55 l24 -25 311
0 311 0 24 25 c16 15 25 36 25 55 0 19 -9 40 -25 55 l-24 25 -311 0 -311 0
-24 -25z"/>
<path d="M1656 2411 c-171 -171 -324 -315 -339 -320 -46 -18 -88 -13 -239 25
-124 32 -160 37 -268 38 -104 1 -137 -3 -195 -21 -199 -63 -365 -229 -428
-428 -31 -99 -31 -271 0 -370 31 -98 87 -189 163 -265 111 -110 246 -174 397
-187 67 -5 82 -10 105 -34 22 -21 28 -37 28 -71 0 -75 28 -180 71 -268 32 -65
60 -102 118 -160 270 -268 700 -249 943 43 36 43 48 66 48 91 0 43 -35 76 -80
76 -29 0 -43 -10 -101 -73 -74 -81 -148 -127 -244 -152 -163 -42 -340 10 -460
136 -88 92 -118 170 -140 360 -12 97 -106 192 -204 204 -195 24 -268 52 -360
140 -276 263 -152 715 222 812 85 22 187 13 372 -33 121 -29 162 -35 216 -32
117 9 135 22 459 345 l296 293 102 0 102 0 0 -135 c0 -131 1 -137 25 -160 23
-24 29 -25 160 -25 l135 0 0 -102 0 -102 -293 -296 c-323 -324 -336 -342 -345
-459 -3 -54 3 -95 32 -216 20 -82 39 -183 43 -224 5 -60 11 -80 29 -98 32 -31
78 -30 111 3 25 25 26 29 20 108 -3 45 -22 146 -41 224 -38 149 -43 193 -25
239 5 15 149 168 320 338 l309 311 0 192 c0 191 0 193 -25 217 -23 24 -29 25
-160 25 l-135 0 0 135 c0 131 -1 137 -25 160 -24 25 -26 25 -217 25 l-192 0
-310 -309z"/>
<path d="M3546 2299 c-37 -29 -37 -89 0 -118 26 -20 38 -21 336 -21 l309 0 24
25 c16 15 25 36 25 55 0 19 -9 40 -25 55 l-24 25 -309 0 c-298 0 -310 -1 -336
-21z"/>
<path d="M3305 1815 c-17 -16 -25 -35 -25 -57 0 -29 23 -56 223 -255 199 -200
226 -223 255 -223 22 0 41 8 57 25 17 16 25 35 25 57 0 29 -23 56 -223 255
-199 200 -226 223 -255 223 -22 0 -41 -8 -57 -25z"/>
<path d="M2825 1575 l-25 -24 0 -311 0 -311 25 -24 c32 -33 78 -33 110 0 l25
24 0 311 0 311 -25 24 c-15 16 -36 25 -55 25 -19 0 -40 -9 -55 -25z"/>
</g>
</svg>
