<?xml version="1.0" standalone="no"?>
<!DOCTYPE svg PUBLIC "-//W3C//DTD SVG 20010904//EN"
 "http://www.w3.org/TR/2001/REC-SVG-20010904/DTD/svg10.dtd">
<svg version="1.0" xmlns="http://www.w3.org/2000/svg"
 width="512.000000pt" height="512.000000pt" viewBox="0 0 512.000000 512.000000"
 preserveAspectRatio="xMidYMid meet">

<g transform="translate(0.000000,512.000000) scale(0.100000,-0.100000)"
fill="#000000" stroke="none">
<path d="M1822 4950 c-66 -41 -79 -128 -27 -187 21 -26 30 -28 109 -32 l86 -3
0 -782 0 -781 -92 -45 c-373 -179 -680 -529 -808 -920 -59 -180 -74 -276 -74
-485 -1 -146 3 -213 18 -290 147 -789 867 -1339 1658 -1267 413 37 764 214
1041 521 544 604 518 1540 -58 2116 -142 142 -319 262 -492 332 l-53 22 0 794
0 794 74 5 c88 6 121 24 143 76 20 48 8 98 -30 126 -28 21 -35 21 -745 24
-702 2 -718 2 -750 -18z m1086 -312 l-3 -103 -103 -5 c-102 -5 -104 -6 -133
-38 -23 -26 -29 -41 -29 -80 0 -91 45 -122 180 -122 l90 0 0 -150 0 -150 -90
0 c-132 0 -180 -31 -180 -117 0 -95 40 -123 179 -123 l91 0 0 -150 0 -150 -85
0 c-136 0 -185 -33 -185 -125 0 -48 19 -88 48 -101 9 -5 62 -11 117 -14 l100
-5 5 -110 c3 -60 9 -118 14 -127 10 -22 39 -40 101 -62 224 -82 448 -250 593
-444 60 -82 149 -242 134 -242 -6 0 -61 9 -124 19 -304 52 -552 33 -913 -68
-77 -21 -212 -59 -300 -84 -210 -59 -320 -78 -490 -84 -189 -7 -370 20 -583
88 -51 16 -50 20 4 138 99 214 299 433 514 562 30 18 111 56 180 84 112 45
127 54 142 85 17 33 18 97 18 908 l0 872 355 0 356 0 -3 -102z m690 -2573 c51
-9 129 -27 175 -39 l82 -22 12 -80 c18 -116 16 -342 -2 -449 -96 -550 -535
-987 -1084 -1079 -122 -21 -321 -20 -442 0 -626 107 -1096 654 -1100 1280 -1
107 17 264 30 264 3 0 47 -14 96 -30 328 -111 705 -114 1062 -11 54 16 175 52
269 79 179 52 328 86 454 101 102 13 335 5 448 -14z"/>
<path d="M3308 1824 c-56 -30 -73 -104 -38 -162 22 -36 54 -52 107 -52 27 0
43 8 69 34 36 36 44 78 24 130 -21 55 -105 81 -162 50z"/>
<path d="M1644 1486 c-26 -26 -34 -42 -34 -70 0 -109 119 -164 194 -89 75 74
25 193 -81 193 -38 0 -50 -5 -79 -34z"/>
<path d="M2613 1460 c-40 -24 -53 -48 -53 -100 0 -34 6 -48 34 -76 28 -28 41
-34 78 -34 24 0 54 7 66 16 26 18 52 65 52 94 0 39 -31 88 -65 104 -44 21 -73
20 -112 -4z"/>
<path d="M2173 985 c-42 -18 -66 -57 -66 -106 0 -113 146 -155 210 -60 32 48
31 100 -4 133 -54 50 -85 57 -140 33z"/>
<path d="M3222 986 c-63 -34 -81 -122 -36 -175 90 -107 254 4 189 128 -8 17
-30 35 -55 45 -48 19 -67 20 -98 2z"/>
</g>
</svg>
