<?xml version="1.0" standalone="no"?>
<!DOCTYPE svg PUBLIC "-//W3C//DTD SVG 20010904//EN"
 "http://www.w3.org/TR/2001/REC-SVG-20010904/DTD/svg10.dtd">
<svg version="1.0" xmlns="http://www.w3.org/2000/svg"
 width="512.000000pt" height="512.000000pt" viewBox="0 0 512.000000 512.000000"
 preserveAspectRatio="xMidYMid meet">

<g transform="translate(0.000000,512.000000) scale(0.100000,-0.100000)"
fill="#000000" stroke="none">
<path d="M3595 5109 c-228 -30 -450 -121 -632 -258 -48 -36 -576 -558 -1379
-1362 -1404 -1407 -1359 -1359 -1453 -1560 -93 -197 -125 -348 -125 -579 0
-192 15 -285 73 -449 135 -384 445 -693 826 -824 165 -56 258 -71 445 -71 231
0 382 32 579 125 202 94 152 48 1569 1463 881 881 1330 1336 1367 1386 109
152 191 341 231 535 26 126 26 384 0 510 -69 335 -253 626 -525 831 -146 110
-358 203 -543 239 -100 20 -336 27 -433 14z m415 -379 c91 -22 240 -89 317
-141 69 -47 198 -174 248 -244 165 -232 223 -535 155 -815 -25 -101 -92 -247
-157 -339 -27 -38 -285 -305 -614 -636 l-569 -570 -702 703 -703 702 565 564
c311 310 594 585 630 611 121 88 268 151 417 180 106 20 300 13 413 -15z
m-1575 -2300 l700 -700 -570 -569 c-331 -329 -598 -587 -636 -614 -92 -65
-238 -132 -345 -159 -127 -32 -341 -32 -468 0 -96 24 -219 78 -309 135 -75 48
-209 177 -263 253 -62 86 -129 234 -156 340 -32 127 -32 341 0 468 27 107 94
253 159 345 40 57 1167 1201 1183 1201 3 0 320 -315 705 -700z"/>
<path d="M3598 4530 c-159 -29 -302 -99 -416 -204 -56 -51 -74 -88 -74 -146 0
-101 63 -171 161 -178 65 -5 103 10 162 63 145 130 361 152 528 52 29 -18 85
-67 123 -109 74 -81 104 -98 175 -98 95 0 173 80 173 177 0 53 -32 111 -102
187 -102 112 -237 196 -380 236 -82 24 -272 35 -350 20z"/>
</g>
</svg>
