<?xml version="1.0" standalone="no"?>
<!DOCTYPE svg PUBLIC "-//W3C//DTD SVG 20010904//EN"
 "http://www.w3.org/TR/2001/REC-SVG-20010904/DTD/svg10.dtd">
<svg version="1.0" xmlns="http://www.w3.org/2000/svg"
 width="512.000000pt" height="512.000000pt" viewBox="0 0 512.000000 512.000000"
 preserveAspectRatio="xMidYMid meet">

<g transform="translate(0.000000,512.000000) scale(0.100000,-0.100000)"
fill="#000000" stroke="none">
<path d="M2913 5082 c-72 -21 -134 -40 -138 -43 -3 -3 19 -98 50 -211 30 -112
55 -207 55 -211 0 -3 -43 -27 -96 -53 -52 -25 -128 -70 -168 -99 l-74 -52
-158 158 -159 159 -102 -102 c-57 -57 -103 -107 -103 -113 0 -5 67 -77 150
-160 l150 -150 -168 -168 -167 -167 -155 155 -155 155 -107 -107 -108 -108
155 -155 155 -155 -160 -160 -160 -160 -155 155 -155 155 -107 -108 -108 -107
155 -155 155 -155 -160 -160 -160 -160 -155 155 -155 155 -108 -108 -107 -107
159 -159 159 -159 -34 -44 c-44 -57 -105 -163 -138 -236 -14 -31 -28 -57 -31
-57 -4 0 -99 25 -212 55 -114 31 -210 52 -214 48 -7 -8 -80 -275 -76 -279 2
-2 415 -114 420 -114 1 0 2 -90 2 -200 0 -169 -2 -201 -15 -205 -8 -2 -103
-27 -210 -56 -107 -28 -196 -52 -197 -53 -4 -4 69 -271 77 -279 4 -5 100 17
214 47 114 31 209 56 211 56 2 0 22 -37 43 -83 21 -45 64 -120 95 -166 32 -46
57 -87 57 -90 0 -4 -70 -76 -155 -161 l-155 -155 107 -107 108 -108 155 155
c85 85 158 155 161 155 3 0 43 -25 88 -55 45 -30 120 -73 167 -95 46 -22 84
-42 84 -45 0 -2 -25 -97 -56 -211 -30 -114 -52 -210 -47 -214 8 -8 275 -81
279 -77 1 1 25 90 53 197 29 107 54 202 56 210 4 13 35 15 204 15 l200 0 57
-213 c47 -174 60 -212 73 -208 9 3 70 19 136 37 66 17 124 34 128 38 4 4 -17
100 -48 213 -30 112 -55 207 -55 211 0 3 43 27 96 53 52 25 128 70 168 99 l74
52 158 -158 159 -159 102 102 c57 57 103 107 103 113 0 5 -67 77 -150 160
l-150 150 160 160 160 160 155 -155 155 -155 107 108 108 107 -155 155 -155
155 160 160 160 160 150 -150 c83 -83 155 -150 160 -150 6 0 56 46 113 103
l102 102 -155 155 -155 155 167 167 168 168 155 -155 155 -155 108 108 107
107 -159 159 -159 159 34 44 c44 57 105 163 138 236 14 31 29 57 33 57 4 0
100 -25 213 -55 112 -30 207 -51 211 -47 4 4 21 61 38 127 18 66 34 127 37
136 4 13 -33 26 -208 73 l-213 58 0 199 c0 169 2 200 15 204 8 2 103 27 210
56 107 28 196 52 197 53 4 4 -69 271 -77 279 -4 5 -100 -17 -213 -47 -113 -31
-208 -56 -211 -56 -3 0 -23 37 -44 83 -21 45 -64 120 -95 166 -32 46 -57 87
-57 90 0 4 70 76 155 161 l155 155 -107 107 -108 108 -155 -155 c-85 -85 -158
-155 -161 -155 -3 0 -44 25 -90 57 -46 31 -121 74 -166 95 -46 21 -83 41 -83
43 0 2 25 97 56 211 30 114 52 210 47 215 -8 7 -275 81 -279 76 -1 -1 -25 -90
-53 -197 -29 -107 -54 -202 -56 -210 -4 -13 -35 -15 -204 -15 l-200 0 -57 213
c-31 116 -60 212 -63 211 -3 0 -65 -17 -138 -37z m702 -711 c188 -46 355 -143
491 -283 184 -189 278 -406 291 -673 11 -242 -57 -467 -198 -655 -81 -107
-1797 -1815 -1874 -1865 -293 -190 -653 -227 -965 -100 -240 98 -457 312 -557
548 -60 142 -77 232 -78 402 0 216 37 357 143 540 42 73 129 162 957 991 590
591 930 924 968 948 125 81 259 135 400 162 100 19 317 12 422 -15z"/>
<path d="M3193 3896 c-187 -36 -354 -167 -433 -341 -39 -86 -53 -157 -52 -260
3 -323 264 -584 587 -587 146 -2 263 36 378 123 147 109 230 284 230 479 0
164 -58 304 -173 420 -141 140 -342 202 -537 166z m236 -317 c183 -80 234
-321 101 -472 -145 -166 -412 -122 -503 82 -14 32 -20 67 -20 116 0 220 220
363 422 274z"/>
<path d="M2030 3124 c-211 -56 -358 -285 -322 -500 52 -311 388 -477 664 -327
69 37 153 130 191 210 30 64 32 74 32 184 0 113 -1 117 -37 190 -100 202 -313
300 -528 243z m190 -302 c107 -53 107 -211 0 -264 -75 -38 -164 -8 -200 67
-24 49 -25 74 -6 119 35 85 125 119 206 78z"/>
<path d="M1172 2237 l-102 -102 105 -105 105 -105 105 105 105 105 -102 102
c-57 57 -105 103 -108 103 -3 0 -51 -46 -108 -103z"/>
<path d="M2735 2100 l-100 -100 108 -107 107 -108 105 105 105 105 -102 102
c-57 57 -107 103 -113 103 -6 0 -55 -45 -110 -100z"/>
<path d="M1861 1874 c-125 -33 -236 -129 -294 -251 -27 -58 -32 -82 -35 -163
-3 -78 0 -107 17 -158 79 -233 310 -358 546 -297 217 57 365 286 326 506 -48
264 -306 432 -560 363z m197 -311 c70 -52 88 -122 50 -192 -74 -139 -278 -88
-278 70 0 88 72 154 159 146 24 -3 55 -13 69 -24z"/>
</g>
</svg>
