<?xml version="1.0" standalone="no"?>
<!DOCTYPE svg PUBLIC "-//W3C//DTD SVG 20010904//EN"
 "http://www.w3.org/TR/2001/REC-SVG-20010904/DTD/svg10.dtd">
<svg version="1.0" xmlns="http://www.w3.org/2000/svg"
 width="512.000000pt" height="512.000000pt" viewBox="0 0 512.000000 512.000000"
 preserveAspectRatio="xMidYMid meet">

<g transform="translate(0.000000,512.000000) scale(0.100000,-0.100000)"
fill="#000000" stroke="none">
<path d="M2415 5109 c-137 -20 -309 -84 -431 -161 -69 -44 -145 -109 -156
-133 -23 -50 34 -115 85 -99 12 4 50 28 84 55 115 88 220 138 363 175 63 16
110 19 295 18 254 0 312 -11 470 -88 241 -118 412 -322 486 -581 15 -50 23
-120 28 -240 6 -113 14 -182 24 -206 8 -20 65 -111 126 -202 61 -92 111 -171
111 -177 0 -6 -35 -10 -89 -10 -81 0 -92 -2 -120 -26 -36 -30 -51 -77 -51
-162 l0 -63 -57 6 c-53 7 -76 17 -168 75 -29 17 -66 4 -90 -34 -24 -37 -8 -73
51 -119 54 -41 117 -63 207 -72 l57 -6 0 -88 c0 -74 -3 -91 -20 -109 -31 -33
-56 -35 -190 -12 -139 24 -175 21 -220 -17 -55 -45 -60 -67 -60 -236 0 -145 1
-156 26 -205 14 -29 40 -63 58 -76 17 -14 216 -110 441 -215 226 -105 434
-208 463 -228 113 -77 197 -199 232 -339 19 -73 20 -113 20 -701 l0 -625 -29
-29 -29 -29 -1467 0 c-920 0 -1473 -4 -1484 -10 -10 -5 -24 -22 -30 -39 -10
-24 -10 -34 3 -59 8 -16 23 -32 31 -36 9 -3 676 -6 1482 -6 1122 0 1475 3
1507 12 58 17 138 99 155 158 9 34 11 198 8 700 -4 738 0 699 -84 862 -54 105
-146 209 -241 271 -37 25 -247 128 -466 231 -220 102 -410 196 -423 208 -22
20 -23 28 -23 151 l0 129 28 -6 c118 -24 229 -37 267 -31 66 9 134 60 167 124
l28 53 0 223 0 222 80 5 c89 5 117 19 158 79 20 28 23 44 20 89 -4 51 -13 68
-128 240 l-124 185 -7 165 c-5 91 -13 185 -19 210 -48 201 -135 361 -272 506
-163 171 -372 282 -602 319 -100 16 -380 19 -481 4z"/>
<path d="M2425 4775 c-38 -7 -95 -22 -126 -34 -117 -45 -254 -144 -284 -207
-22 -47 -16 -120 13 -161 45 -64 36 -63 617 -63 576 0 556 -2 608 60 60 71 45
152 -42 232 -103 94 -228 154 -371 177 -88 15 -329 12 -415 -4z m420 -150 c87
-18 198 -72 256 -124 l44 -40 -497 -1 c-274 0 -498 3 -498 6 0 17 127 103 190
129 25 10 72 24 105 31 85 17 315 17 400 -1z"/>
<path d="M1650 4577 c-43 -21 -107 -173 -141 -332 -17 -77 -17 -312 -1 -390
45 -210 108 -334 277 -543 l35 -44 0 -401 c0 -393 0 -401 -21 -423 -12 -12
-202 -107 -422 -210 -221 -103 -426 -203 -456 -222 -119 -75 -229 -207 -284
-337 -55 -131 -57 -160 -57 -841 0 -463 3 -637 12 -668 16 -55 99 -138 154
-154 25 -7 104 -12 196 -12 149 0 155 1 176 23 29 31 29 77 -1 105 -22 21 -33
22 -176 22 l-153 0 -29 29 -29 29 0 625 c0 588 1 628 20 701 35 140 119 262
232 339 29 20 236 122 460 226 225 105 423 202 442 216 19 15 46 50 61 78 l25
51 0 425 c0 485 3 463 -87 563 -68 75 -107 133 -153 230 -65 136 -83 219 -83
388 0 162 18 250 74 370 17 36 31 78 31 93 2 50 -56 87 -102 64z"/>
<path d="M2439 4120 c-212 -38 -344 -281 -257 -472 28 -61 124 -193 179 -245
54 -51 139 -85 219 -87 81 -1 110 17 110 71 0 49 -26 69 -100 76 -80 9 -113
28 -173 102 -112 139 -128 182 -102 271 29 99 111 144 265 144 82 0 110 19
110 73 0 55 -28 72 -124 74 -44 1 -102 -2 -127 -7z"/>
<path d="M3251 4014 c-34 -43 -26 -86 20 -110 35 -18 74 -10 94 19 53 76 -57
163 -114 91z"/>
<path d="M2481 3764 c-27 -35 -26 -57 3 -91 22 -26 30 -28 94 -28 85 0 112 18
112 75 0 56 -22 70 -113 70 -70 0 -77 -2 -96 -26z"/>
<path d="M2310 3117 c-19 -6 -55 -32 -81 -57 -115 -111 -93 -294 46 -375 l45
-27 0 -98 0 -98 -45 -27 c-96 -56 -141 -166 -110 -270 18 -63 67 -124 120
-149 l35 -17 0 -117 -1 -117 -87 -67 -87 -67 -5 119 c-6 131 -15 153 -80 198
-42 28 -146 30 -275 3 -305 -63 -570 -273 -700 -554 -77 -167 -99 -318 -93
-657 3 -212 4 -228 26 -273 30 -60 82 -103 151 -124 l54 -17 310 51 c350 59
401 76 485 160 90 90 122 188 122 373 l0 107 185 144 c101 79 196 148 210 153
16 6 34 6 50 0 14 -5 109 -74 210 -153 l185 -144 0 -107 c0 -185 32 -283 122
-373 84 -84 135 -101 485 -160 l310 -51 54 17 c69 21 121 64 151 124 22 45 23
61 26 273 6 338 -16 490 -93 656 -101 220 -312 421 -529 505 -105 41 -242 69
-337 69 -63 0 -82 -4 -109 -23 -65 -44 -74 -66 -80 -197 l-5 -119 -87 67 -87
67 -1 117 0 117 35 17 c51 24 103 90 121 151 30 102 -16 213 -111 268 l-45 27
0 98 0 98 45 27 c139 81 161 264 47 375 -27 26 -64 51 -88 58 -53 15 -444 15
-494 -1z m462 -148 c31 -17 50 -71 37 -108 -19 -54 -47 -61 -249 -61 -202 0
-230 7 -249 61 -12 36 5 90 36 108 25 14 397 15 425 0z m-122 -409 l0 -90 -90
0 -90 0 0 90 0 90 90 0 90 0 0 -90z m119 -255 c56 -29 58 -125 3 -154 -28 -15
-396 -15 -424 0 -31 17 -50 71 -37 108 19 54 44 60 247 61 142 0 189 -3 211
-15z m-119 -441 c0 -97 4 -134 17 -161 12 -26 103 -102 364 -305 259 -202 351
-279 358 -300 13 -36 -7 -91 -37 -107 -54 -29 -69 -20 -369 214 -158 124 -304
233 -323 242 -47 24 -153 24 -200 0 -19 -9 -165 -119 -324 -242 -299 -234
-315 -243 -368 -214 -11 6 -26 26 -34 45 -26 62 -16 72 355 361 241 188 349
278 362 303 16 29 19 57 19 162 l0 128 90 0 90 0 0 -126z m-660 -199 l0 -154
-176 -137 c-97 -75 -186 -153 -199 -173 -67 -101 -48 -234 45 -313 76 -66 172
-76 266 -28 32 16 61 30 63 30 2 0 1 -32 -2 -70 -10 -116 -77 -210 -171 -239
-17 -6 -158 -31 -313 -56 -262 -43 -284 -45 -311 -31 -46 24 -52 57 -52 290 0
251 11 350 51 471 105 316 426 560 742 564 l57 1 0 -155z m1318 139 c311 -64
559 -302 643 -619 18 -69 22 -117 26 -341 6 -292 2 -324 -49 -350 -28 -14 -47
-13 -311 31 -155 25 -296 51 -313 56 -94 29 -164 126 -172 241 -2 37 -3 68 -1
68 2 0 31 -14 63 -30 94 -48 190 -38 266 28 93 79 112 212 45 313 -13 20 -102
98 -199 173 l-176 137 0 154 0 155 50 0 c28 0 86 -7 128 -16z"/>
</g>
</svg>
