<?xml version="1.0" standalone="no"?>
<!DOCTYPE svg PUBLIC "-//W3C//DTD SVG 20010904//EN"
 "http://www.w3.org/TR/2001/REC-SVG-20010904/DTD/svg10.dtd">
<svg version="1.0" xmlns="http://www.w3.org/2000/svg"
 width="512.000000pt" height="512.000000pt" viewBox="0 0 512.000000 512.000000"
 preserveAspectRatio="xMidYMid meet">

<g transform="translate(0.000000,512.000000) scale(0.100000,-0.100000)"
fill="#000000" stroke="none">
<path d="M1755 4549 c-105 -8 -181 -25 -285 -61 -304 -107 -469 -266 -540
-520 -33 -118 -45 -353 -31 -613 48 -875 167 -1461 391 -1920 286 -586 698
-867 1269 -866 504 1 881 221 1165 680 260 421 430 1090 475 1871 35 595 34
554 13 700 -11 74 -28 158 -37 185 -66 195 -224 362 -432 457 -125 56 -239 79
-424 85 -263 9 -410 -21 -626 -129 -144 -71 -143 -71 -282 -3 -220 107 -438
152 -656 134z m355 -149 c110 -29 262 -92 307 -126 19 -15 44 -45 54 -68 18
-39 19 -84 19 -963 l0 -922 26 -20 c25 -19 45 -19 72 2 9 7 12 204 12 921 0
518 4 928 10 951 12 52 58 92 175 150 158 78 339 112 539 102 205 -10 353 -55
483 -146 129 -91 211 -200 255 -341 22 -72 23 -87 22 -395 -1 -907 -155 -1682
-429 -2165 -161 -285 -408 -522 -637 -610 -153 -59 -276 -80 -478 -80 -453 0
-804 215 -1071 656 -276 458 -442 1267 -443 2169 -1 276 2 331 17 398 59 249
230 405 532 485 113 30 122 30 295 27 122 -2 173 -7 240 -25z"/>
</g>
</svg>
